<?xml version="1.0" encoding="utf-8"?>
<!-- Generator: Adobe Illustrator 26.0.3, SVG Export Plug-In . SVG Version: 6.00 Build 0)  -->
<svg version="1.1" id="_x32_2" xmlns="http://www.w3.org/2000/svg" xmlns:xlink="http://www.w3.org/1999/xlink" x="0px" y="0px"
	 viewBox="0 0 500 500" style="enable-background:new 0 0 500 500;" xml:space="preserve">
<style type="text/css">
	.st0{display:none;}
	.st1{display:inline;fill:#5B5B5B;}
	.st2{display:inline;fill:#7F7F7F;}
	.st3{display:inline;fill:#FFEC5F;}
	.st4{fill:#68836A;}
	.st5{font-family:'ArialMT';}
	.st6{font-size:22px;}
	.st7{fill:#A88B49;}
	.st8{fill:#FFFFFF;stroke:#FFFFFF;stroke-width:1.5;stroke-miterlimit:8;}
	.st9{fill:none;stroke:#FFFFFF;stroke-width:1.5;stroke-miterlimit:8;}
	.st10{fill:#FFFFFF;stroke:#FFFFFF;stroke-width:1.5001;stroke-miterlimit:8.0008;}
</style>
<g id="LAD">
	<g id="compass" class="st0">
		<path class="st1" d="M463,414.6l-11.8-14l-5.4-15.2l11,11.8L463,414.6z"/>
		<path class="st2" d="M470,425.6c-14.6,8.8-33.8,4-42.6-10.8c-8.8-14.6-4-33.8,10.8-42.6c14.6-8.8,33.8-4,42.6,10.8
			C489.4,397.8,484.6,416.8,470,425.6z M439.4,374.6c-13.4,8-17.8,25.4-9.8,39c8,13.4,25.4,17.8,39,9.8c13.4-8,17.8-25.4,9.8-39
			C470.4,371,453,366.6,439.4,374.6z"/>
		<path class="st1" d="M455.4,393.2c3.2,0.8,5.2,4,4.4,7.2c-0.8,3.2-4,5.2-7.2,4.4c-3.2-0.8-5.2-4-4.4-7.2
			C449,394.4,452.4,392.4,455.4,393.2z M442.4,384.4l-3.2-5.2l0.8-0.4l4.6,2.2l-2.2-3.6l0.8-0.6l3.2,5.2l-0.8,0.4l-4.6-2.2l2.2,3.6
			L442.4,384.4z"/>
		<path class="st3" d="M454.8,395.8c1.8,0.4,2.8,2.2,2.4,4s-2.2,2.8-4,2.4s-2.8-2.2-2.4-4S453,395.4,454.8,395.8z"/>
	</g>
	<g id="distances">
		<text id="right" transform="matrix(1 0 0 1 445.8398 231.0967)" class="st4 st5 st6">330</text>
		<text id="_x36_" transform="matrix(1 0 0 1 428.9902 163.2188)" class="st4 st5 st6">360</text>
		<text id="_x35__1_" transform="matrix(1 0 0 1 324.457 99.0947)" class="st4 st5 st6">375</text>
		<text id="center" transform="matrix(1 0 0 1 232.0684 69.4697)" class="st4 st5 st6">395</text>
		<text id="_x33_" transform="matrix(1 0 0 1 132.3926 99.0947)" class="st4 st5 st6">375</text>
		<text id="_x32_" transform="matrix(1 0 0 1 28.6445 163.2188)" class="st4 st5 st6">360</text>
		<text id="left" transform="matrix(1 0 0 1 16.7012 231.0967)" class="st4 st5 st6">330</text>
	</g>
	<g id="field">
		<path id="Outfield_1_" class="st7" d="M60.2,224l-2.6-10v-6.8l0.4-6.6l0.8-6.4l1.4-6l1.8-5.8l2.2-5.6L67,172l3.2-4.4l3.2-4.4
			l4.2-3.2l4.4-3l4-3l4.4-3l4.4-3l4.4-3l4.4-3l4.4-2.8l4.4-2.8l4.6-2.8l4.6-2.8l4.4-2.8l4.6-2.8l4.6-2.8l4.6-2.8l4.8-2.8l4.8-2.6
			l4.8-2.6l4.8-2.6l5-2.6l5-2.4l5-2.4l5.2-2.2l5.2-2.2l5.2-2.2l5.2-2.2l5.2-2.2l5.4-2l5.4-2l5.4-1.8l5.6-1.8l5.6-1.8l5.6-1.6
			l5.6-1.2l5.8-0.8l5.8-0.6l5.8,0.6l5.8,0.8l5.6,1.4l5.6,1.6l5.6,1.6l5.4,2l5.4,2l5.4,1.8l5.4,2.2l5.2,2.2l5.2,2.2l5.2,2l5.2,2.2
			l5,2.4l5,2.4l5,2.4l5,2.4l4.8,2.6l4.8,2.6l4.8,2.6l4.8,2.6l4.6,2.8l4.6,2.8l4.6,2.8l4.6,2.8l4.6,2.8l4.4,2.8l4.4,2.8l4.4,2.8
			l4.4,2.8l4.4,2.8l4.4,2.8l4.4,3l4.4,3l4.4,3l4.2,3.2l3.2,4.6l3.2,4.4l3,4.6l1.8,5.8l1.8,5.8l1.4,6l0.8,6.4l0.6,6.4l-0.2,7l-3,18
			l-47.6,49c0,0-85.8,132-93.8,141c-6.4,7.2-19,30.2-50.6,30.2c-35.8,0-52.4-36.2-52.4-36.2l-83.4-140.8L60.2,224z"/>
		<path id="grass_1_" class="st4" d="M247.6,436.4c-33.4,0-47-31.6-47.8-32.6l-73.6-136.2l-47.8-51.8l-1-3.8v-4.2l0.4-5.6l0.8-5.2
			l1-4.8l1.4-4.6l1.4-3.8l1.8-3L87,177l2-2.6l6.2-7.2l4.4-3l8.6-5.8l4.2-2.8l4.4-2.8l4.4-2.8l4.4-2.8l4.6-2.8l13.6-8.4l4.6-2.6
			l4.4-2.6l14.2-7.6l4.6-2.4l4.8-2.4l4.6-2.2l4.8-2.2l5-2.2l10.4-4.4l4.8-2l5.4-2l5.2-2l5-1.8l5.6-1.8l5.2-1.8l4.6-1.4l4.4-1l5-0.6
			l4-0.4l3.8,0.4l4.4,0.6l4.8,1.2l5.2,1.4l5,1.4l10.6,3.6l5.2,1.8l15.6,6.4l5,2l4.6,2l9.8,4.6l4.8,2.2l4.6,2.4l4.8,2.4l4.6,2.4
			l4.6,2.6l4.4,2.6l4.4,2.6l9,5.6l4.6,2.8l4.4,2.8l8.8,5.6l4.4,2.8l8.8,5.6l4.2,2.6l8.4,5.8l4,2.8l1.8,1.4l4.8,6.8l1.6,2.6l2.8,9
			l1,4.8l0.8,5.4l0.4,5.2v3.8l-3.4,16.6L372.6,280c0,0-75.6,123.8-76.4,124.8c-5.4,6-17,30.8-47.6,30.8L247.6,436.4L247.6,436.4z"/>
		<path id="infield_sand_1_" class="st7" d="M326,331.6c-0.4,0.4-12-56.2-74.2-56.2c-66.8,0-78,51-79,56.2l-0.8,0.8l29.6,29.6
			l1.4-1.4l36.4,35.8c-1.4,2-2.2,4.4-2.2,7.2c0,2.4,0.8,4.8,2,6.8v0.2c2.2,3.6,6.2,6,10.8,6c7,0,12.8-5.8,12.8-12.8
			c0-3-1-5.6-2.6-7.8l37.4-35.4l3,1l27-27L326,331.6L326,331.6z M257.2,393.4c-2-1.4-4.6-2.4-7.4-2.4c-3,0-5.6,1-7.8,2.6l-35.2-36.4
			c0,0,12.4-11.2,5.4-20.4l34.8-29c1-0.6,2.2-0.8,3.6-0.8c1.8,0,3.4,1,4.6,2.2c0,0,0.2,0,0.2,0.2l32.4,31c-1,2,0.2,12.6,6,17.8
			L257.2,393.4L257.2,393.4z"/>
	</g>
	<g id="persistent_1_">
		<g id="mound_1_">
			<path id="pitching-mound_1_" class="st7" d="M245,349.4c-3,3-3,7.8,0,10.8s7.8,3,10.8,0c3-3,3-7.8,0-10.8
				C253,346.4,248,346.4,245,349.4z"/>
			<path id="pitching-rubber_1_" class="st8" d="M246.4,353.2h8v3.2h-8V353.2z"/>
		</g>
		<g id="lines_1_">
			<path id="left-foul-line_2_" class="st9" d="M250.4,406.4L57.6,213.8"/>
			<path id="right-foul-line_2_" class="st9" d="M250.4,406.4l192-192"/>
		</g>
		<g id="bases_1_">
			<path id="third-base_1_" class="st8" d="M195.5,352l4.2-4.2l4.2,4.2l-4.2,4.2L195.5,352z"/>
			<path id="first-base_1_" class="st8" d="M296.5,352l4.2-4.2l4.2,4.2l-4.2,4.2L296.5,352z"/>
			<path id="second-base_1_" class="st10" d="M246.1,301.6l4.2-4.2l4.2,4.2l-4.2,4.2L246.1,301.6z"/>
			<path id="home_1_" class="st8" d="M253.4,403.6l-3,3.2l-3-3.2v-3h6V403.6z"/>
		</g>
	</g>
</g>
</svg>
