<?xml version="1.0" standalone="no"?>
<!DOCTYPE svg PUBLIC "-//W3C//DTD SVG 1.1//EN" "http://www.w3.org/Graphics/SVG/1.1/DTD/svg11.dtd">
<!--Generator: Xara Designer (www.xara.com), SVG filter version: 4.0.0.1-->
<svg stroke-width="0.501" stroke-linejoin="bevel" fill-rule="evenodd" xmlns:xlink="http://www.w3.org/1999/xlink" xmlns="http://www.w3.org/2000/svg" version="1.1" overflow="visible" width="487.5pt" height="487.5pt" viewBox="0 0 487.5 487.5">
 <defs>
  <marker id="DefaultArrow2" markerUnits="strokeWidth" viewBox="0 0 1 1" markerWidth="1" markerHeight="1" overflow="visible" orient="auto">
   <!-- REF_ARROW_STRAIGHT (-2) -->
   <g transform="scale(0.0092592592)">
    <!-- 1/108 -->
    <path d="M -9 54 L -9 -54 L 117 0 z"/>
   </g>
  </marker>
  <marker id="DefaultArrow3" markerUnits="strokeWidth" viewBox="0 0 1 1" markerWidth="1" markerHeight="1" overflow="visible" orient="auto">
   <!-- REF_ARROW_ANGLED -->
   <g transform="scale(0.0092592592)">
    <path d="M -27 54 L -9 0 L -27 -54 L 135 0 z"/>
   </g>
  </marker>
  <marker id="DefaultArrow4" markerUnits="strokeWidth" viewBox="0 0 1 1" markerWidth="1" markerHeight="1" overflow="visible" orient="auto">
   <!-- REF_ARROW_ROUNDED -->
   <g transform="scale(0.0092592592)">
    <path d="M -9,0 L -9,-45 C -9,-51.708 2.808,-56.580 9,-54 L 117,-9 C 120.916,-7.369 126.000,-4.242 126,0 C 126,4.242 120.916,7.369 117,9 L 9,54 C 2.808,56.580 -9,51.708 -9,45 z"/>
   </g>
  </marker>
  <marker id="DefaultArrow5" markerUnits="strokeWidth" viewBox="0 0 1 1" markerWidth="1" markerHeight="1" overflow="visible" orient="auto">
   <!-- REF_ARROW_SPOT -->
   <g transform="scale(0.0092592592)">
    <path d="M -54, 0 C -54,29.807 -29.807,54 0,54 C 29.807,54 54,29.807 54,0 C 54,-29.807 29.807,-54 0,-54 C -29.807,-54 -54,-29.807 -54,0 z"/>
   </g>
  </marker>
  <marker id="DefaultArrow6" markerUnits="strokeWidth" viewBox="0 0 1 1" markerWidth="1" markerHeight="1" overflow="visible" orient="auto">
   <!-- REF_ARROW_DIAMOND -->
   <g transform="scale(0.0092592592)">
    <path d="M -63,0 L 0,63 L 63,0 L 0,-63 z"/>
   </g>
  </marker>
  <marker id="DefaultArrow7" markerUnits="strokeWidth" viewBox="0 0 1 1" markerWidth="1" markerHeight="1" overflow="visible" orient="auto">
   <!-- REF_ARROW_FEATHER -->
   <g transform="scale(0.0092592592)">
    <path d="M 18,-54 L 108,-54 L 63,0 L 108,54 L 18, 54 L -36,0 z"/>
   </g>
  </marker>
  <marker id="DefaultArrow8" markerUnits="strokeWidth" viewBox="0 0 1 1" markerWidth="1" markerHeight="1" overflow="visible" orient="auto">
   <!-- REF_ARROW_FEATHER2 -->
   <g transform="scale(0.0092592592)">
    <path d="M -36,0 L 18,-54 L 54,-54 L 18,-18 L 27,-18 L 63,-54 L 99,-54 L 63,-18 L 72,-18 L 108,-54 L 144,-54 L 90,0 L 144,54 L 108,54 L 72,18 L 63,18 L 99,54 L 63,54 L 27,18 L 18,18 L 54,54 L 18,54 z"/>
   </g>
  </marker>
  <marker id="DefaultArrow9" markerUnits="strokeWidth" viewBox="0 0 1 1" markerWidth="1" markerHeight="1" overflow="visible" orient="auto">
   <!-- REF_ARROW_HOLLOWDIAMOND -->
   <g transform="scale(0.0092592592)">
    <path d="M 0,45 L -45,0 L 0, -45 L 45, 0 z M 0, 63 L-63, 0 L 0, -63 L 63, 0 z"/>
   </g>
  </marker>
  <filter id="StainedFilter">
   <feBlend mode="multiply" in2="BackgroundImage" in="SourceGraphic" result="blend"/>
   <feComposite in="blend" in2="SourceAlpha" operator="in" result="comp"/>
  </filter>
  <filter id="BleachFilter">
   <feBlend mode="screen" in2="BackgroundImage" in="SourceGraphic" result="blend"/>
   <feComposite in="blend" in2="SourceAlpha" operator="in" result="comp"/>
  </filter>
  <filter id="InvertTransparencyBitmapFilter">
   <feComponentTransfer>
    <feFuncR type="gamma" amplitude="1.055" exponent=".416666666" offset="-0.055"/>
    <feFuncG type="gamma" amplitude="1.055" exponent=".416666666" offset="-0.055"/>
    <feFuncB type="gamma" amplitude="1.055" exponent=".416666666" offset="-0.055"/>
   </feComponentTransfer>
   <feComponentTransfer>
    <feFuncR type="linear" slope="-1" intercept="1"/>
    <feFuncG type="linear" slope="-1" intercept="1"/>
    <feFuncB type="linear" slope="-1" intercept="1"/>
    <feFuncA type="linear" slope="1" intercept="0"/>
   </feComponentTransfer>
   <feComponentTransfer>
    <feFuncR type="gamma" amplitude="1" exponent="2.4" offset="0"/>
    <feFuncG type="gamma" amplitude="1" exponent="2.4" offset="0"/>
    <feFuncB type="gamma" amplitude="1" exponent="2.4" offset="0"/>
   </feComponentTransfer>
  </filter>
 </defs>
 <g id="Document" fill="none" stroke="black" font-family="Times New Roman" font-size="16" transform="scale(1 -1)">
  <g id="Spread" transform="translate(0 -487.5)">
   <g id="Source 2"/>
   <g id="Territory">
    <path d="M 179.396,67.477 L 87.146,228.352 L 26.483,288.17 C 25.881,291.456 25.597,295.262 25.581,299.358 L 242.633,82.307 L 462.835,302.51 C 462.323,298.451 461.657,294.404 461.108,290.42 L 398.858,228.546 L 302.77,66.727 C 290.796,46.561 267.906,27.836 244.458,27.352 C 218.984,26.826 192.07,45.374 179.396,67.477 Z" fill="#23356e" stroke-linejoin="miter" stroke-linecap="round" stroke-width="0.293" stroke="none" marker-start="none" marker-end="none" stroke-miterlimit="79.8403193612775"/>
    <path d="M 242.633,82.307 L 25.581,299.358 C 25.54,310.102 27.347,322.842 30.122,333.448 C 32.83,343.799 36.496,354.559 43.549,362.605 C 64.671,386.701 96.077,399.799 124.849,413.905 C 162.683,432.454 201.514,457.4 243.649,457.105 C 284.507,456.819 321.719,431.909 358.248,413.605 C 388.977,398.208 422.244,383.807 445.27,358.289 C 453.977,348.64 460.03,336.132 462.708,323.414 C 464.145,316.587 463.721,309.531 462.835,302.51 L 242.633,82.307 Z" fill="#4a7f4b" stroke-linejoin="miter" stroke-linecap="round" stroke-width="0.293" stroke="none" marker-start="none" marker-end="none" stroke-miterlimit="79.8403193612775"/>
   </g>
   <g id="Lines">
    <path d="M 240.037,86.23 L 24.037,302.056" fill="none" stroke-width="1.285" stroke-linejoin="miter" stroke="#ffffff" stroke-miterlimit="79.8403193612775"/>
    <path d="M 246.243,86.266 L 463.189,303.31" fill="none" stroke-width="1.292" stroke-linejoin="miter" stroke="#ffffff" stroke-miterlimit="79.8403193612775"/>
    <path d="M 236.219,147.29 C 239.893,150.964 245.859,150.964 249.533,147.29 C 253.207,143.616 253.207,137.65 249.533,133.976 C 245.859,130.302 239.893,130.302 236.219,133.976 C 232.545,137.65 232.545,143.616 236.219,147.29 Z" stroke-width="1.343" stroke="#ffffff" stroke-linecap="round" stroke-linejoin="miter" marker-start="none" marker-end="none" stroke-miterlimit="79.8403193612775"/>
    <path d="M 234.754,91.511 C 239.372,96.129 246.87,96.129 251.488,91.511 C 256.106,86.893 256.106,79.395 251.488,74.777 C 246.87,70.159 239.372,70.159 234.754,74.777 C 230.136,79.395 230.136,86.893 234.754,91.511 Z" stroke-width="1.343" stroke="#ffffff" stroke-linecap="round" stroke-linejoin="miter" marker-start="none" marker-end="none" stroke-miterlimit="79.8403193612775"/>
    <path d="M 243.262,204.252 L 182.697,143.688 L 243.262,83.124 L 303.826,143.688 L 243.262,204.252 Z" stroke-width="1.343" stroke="#ffffff" stroke-linecap="round" stroke-linejoin="miter" marker-start="none" marker-end="none" stroke-miterlimit="79.8403193612775"/>
   </g>
   <g id="Dimensions - Shape">
    <g id="Group" fill-rule="nonzero" stroke-linejoin="round" stroke-linecap="round" stroke="none" stroke-width="0.375" fill="#ffffff" stroke-miterlimit="79.8403193612775">
     <g id="Group_1">
      <path d="M 228.462,440.295 L 228.462,442.097 L 229.163,442.097 C 229.843,442.096 230.379,442.286 230.772,442.666 C 231.166,443.046 231.363,443.529 231.362,444.115 C 231.363,444.701 231.156,445.191 230.742,445.584 C 230.329,445.977 229.843,446.174 229.282,446.173 C 228.856,446.174 228.449,446.03 228.062,445.744 C 227.676,445.457 227.429,445.028 227.322,444.455 L 225.283,444.455 C 225.349,445.455 225.766,446.331 226.532,447.085 C 227.299,447.838 228.189,448.214 229.203,448.214 C 230.469,448.214 231.486,447.798 232.252,446.965 C 233.019,446.131 233.402,445.195 233.402,444.155 C 233.402,443.609 233.296,443.079 233.082,442.565 C 232.869,442.052 232.469,441.602 231.882,441.215 C 232.483,440.829 232.913,440.355 233.173,439.795 C 233.433,439.234 233.563,438.667 233.563,438.094 C 233.563,436.773 233.146,435.72 232.313,434.933 C 231.479,434.145 230.456,433.752 229.242,433.752 C 228.283,433.752 227.416,434.062 226.643,434.681 C 225.869,435.301 225.389,436.204 225.202,437.389 L 227.243,437.389 C 227.429,436.911 227.683,436.522 228.003,436.222 C 228.323,435.923 228.776,435.773 229.363,435.773 C 229.923,435.773 230.423,435.974 230.863,436.374 C 231.303,436.774 231.523,437.327 231.523,438.034 C 231.523,438.741 231.306,439.294 230.873,439.695 C 230.439,440.095 229.923,440.295 229.323,440.295 L 228.462,440.295 Z" marker-start="none" marker-end="none"/>
      <path d="M 235.502,442.795 L 235.502,444.115 C 235.516,445.421 235.929,446.435 236.743,447.155 C 237.489,447.861 238.39,448.214 239.443,448.214 C 240.51,448.214 241.423,447.861 242.183,447.154 C 242.944,446.434 243.337,445.421 243.364,444.114 L 243.364,437.813 C 243.337,436.506 242.944,435.493 242.183,434.773 C 241.449,434.093 240.536,433.74 239.442,433.713 C 238.495,433.74 237.675,434.02 236.981,434.553 C 236.247,435.114 235.78,435.907 235.58,436.934 L 237.626,436.934 C 237.946,436.134 238.552,435.734 239.444,435.734 C 240.696,435.748 241.341,436.481 241.381,437.935 L 241.381,439.275 C 240.434,438.968 239.555,438.821 238.742,438.835 C 237.849,438.821 237.082,439.141 236.442,439.795 C 235.802,440.421 235.489,441.421 235.502,442.795 Z M 237.485,443.995 L 237.485,442.815 C 237.498,441.376 238.151,440.65 239.443,440.637 C 240.695,440.65 241.341,441.376 241.381,442.815 L 241.381,443.995 C 241.341,445.421 240.695,446.147 239.443,446.173 C 238.164,446.147 237.511,445.421 237.485,443.995 Z" marker-start="none" marker-end="none"/>
      <path d="M 245.425,440.394 L 245.425,448.093 L 253.003,448.093 L 253.003,446.051 L 247.343,446.051 L 247.345,442.835 C 247.998,443.355 248.758,443.615 249.625,443.615 C 250.158,443.615 250.649,443.512 251.095,443.305 C 251.542,443.098 251.899,442.855 252.165,442.575 C 252.552,442.148 252.835,441.688 253.015,441.194 C 253.195,440.701 253.285,439.86 253.286,438.673 C 253.285,437.713 253.215,437.003 253.075,436.543 C 252.935,436.083 252.712,435.653 252.405,435.252 C 252.112,434.892 251.701,434.552 251.174,434.232 C 250.647,433.912 250.03,433.752 249.323,433.752 C 248.403,433.752 247.516,434.035 246.662,434.603 C 245.809,435.17 245.308,436.113 245.162,437.433 L 247.202,437.433 C 247.442,436.327 248.122,435.773 249.243,435.773 C 250.231,435.773 250.811,436.117 250.984,436.803 C 251.158,437.49 251.245,438.167 251.245,438.834 C 251.245,439.621 251.111,440.274 250.845,440.794 C 250.578,441.314 250.024,441.574 249.184,441.574 C 248.397,441.574 247.783,441.18 247.343,440.394 L 245.425,440.394 Z" marker-start="none" marker-end="none"/>
     </g>
    </g>
    <g id="Group_2" fill-rule="nonzero" stroke-linejoin="round" stroke-linecap="round" stroke="none" stroke-width="0.375" fill="#ffffff" stroke-miterlimit="79.8403193612775">
     <g id="Group_3">
      <path d="M 36.004,304.96 L 36.004,306.762 L 36.705,306.762 C 37.385,306.761 37.921,306.951 38.314,307.331 C 38.708,307.711 38.905,308.194 38.904,308.78 C 38.905,309.366 38.698,309.856 38.284,310.249 C 37.871,310.642 37.385,310.839 36.824,310.838 C 36.398,310.839 35.991,310.695 35.604,310.409 C 35.218,310.122 34.971,309.693 34.864,309.12 L 32.825,309.12 C 32.891,310.12 33.308,310.996 34.074,311.75 C 34.841,312.503 35.731,312.879 36.745,312.879 C 38.011,312.879 39.028,312.463 39.794,311.63 C 40.561,310.796 40.944,309.86 40.944,308.82 C 40.944,308.274 40.838,307.744 40.624,307.23 C 40.411,306.717 40.011,306.267 39.424,305.88 C 40.025,305.494 40.455,305.02 40.715,304.46 C 40.975,303.899 41.105,303.332 41.105,302.759 C 41.105,301.438 40.688,300.385 39.855,299.598 C 39.021,298.81 37.998,298.417 36.784,298.417 C 35.825,298.417 34.958,298.727 34.185,299.346 C 33.411,299.966 32.931,300.869 32.744,302.054 L 34.785,302.054 C 34.971,301.576 35.225,301.187 35.545,300.887 C 35.865,300.588 36.318,300.438 36.905,300.438 C 37.465,300.438 37.965,300.639 38.405,301.039 C 38.845,301.439 39.065,301.992 39.065,302.699 C 39.065,303.406 38.848,303.959 38.415,304.36 C 37.981,304.76 37.465,304.96 36.865,304.96 L 36.004,304.96 Z" marker-start="none" marker-end="none"/>
      <path d="M 45.604,304.96 L 45.604,306.762 L 46.305,306.762 C 46.985,306.761 47.521,306.951 47.914,307.331 C 48.308,307.711 48.505,308.194 48.504,308.78 C 48.505,309.366 48.298,309.856 47.884,310.249 C 47.471,310.642 46.985,310.839 46.424,310.838 C 45.998,310.839 45.591,310.695 45.204,310.409 C 44.818,310.122 44.571,309.693 44.464,309.12 L 42.425,309.12 C 42.491,310.12 42.908,310.996 43.674,311.75 C 44.441,312.503 45.331,312.879 46.345,312.879 C 47.611,312.879 48.628,312.463 49.394,311.63 C 50.161,310.796 50.544,309.86 50.544,308.82 C 50.544,308.274 50.438,307.744 50.224,307.23 C 50.011,306.717 49.611,306.267 49.024,305.88 C 49.625,305.494 50.055,305.02 50.315,304.46 C 50.575,303.899 50.705,303.332 50.705,302.759 C 50.705,301.438 50.288,300.385 49.455,299.598 C 48.621,298.81 47.598,298.417 46.384,298.417 C 45.425,298.417 44.558,298.727 43.785,299.346 C 43.011,299.966 42.531,300.869 42.344,302.054 L 44.385,302.054 C 44.571,301.576 44.825,301.187 45.145,300.887 C 45.465,300.588 45.918,300.438 46.505,300.438 C 47.065,300.438 47.565,300.639 48.005,301.039 C 48.445,301.439 48.665,301.992 48.665,302.699 C 48.665,303.406 48.448,303.959 48.015,304.36 C 47.581,304.76 47.065,304.96 46.465,304.96 L 45.604,304.96 Z" marker-start="none" marker-end="none"/>
      <path d="M 58.484,302.618 L 58.484,308.658 C 58.484,309.352 58.301,309.888 57.934,310.268 C 57.568,310.649 57.085,310.839 56.485,310.838 C 55.872,310.839 55.385,310.649 55.025,310.268 C 54.665,309.888 54.485,309.352 54.485,308.658 L 54.485,302.618 C 54.485,301.925 54.665,301.388 55.025,301.008 C 55.385,300.628 55.872,300.438 56.485,300.438 C 57.085,300.438 57.568,300.628 57.934,301.008 C 58.301,301.388 58.484,301.925 58.484,302.618 Z M 52.444,302.498 L 52.444,308.779 C 52.444,310.086 52.854,311.096 53.674,311.809 C 54.495,312.523 55.431,312.879 56.485,312.879 C 57.525,312.879 58.458,312.523 59.285,311.809 C 60.112,311.096 60.525,310.086 60.525,308.779 L 60.525,302.498 C 60.525,301.191 60.112,300.184 59.285,299.477 C 58.458,298.77 57.525,298.417 56.485,298.417 C 55.431,298.417 54.495,298.77 53.674,299.477 C 52.854,300.184 52.444,301.191 52.444,302.498 Z" marker-start="none" marker-end="none"/>
     </g>
    </g>
    <g id="Group_4" fill-rule="nonzero" stroke-linejoin="round" stroke-linecap="round" stroke="none" stroke-width="0.375" fill="#ffffff" stroke-miterlimit="79.8403193612775">
     <g id="Group_5">
      <path d="M 431.124,304.96 L 431.124,306.762 L 431.825,306.762 C 432.505,306.761 433.041,306.951 433.434,307.331 C 433.828,307.711 434.025,308.194 434.024,308.78 C 434.025,309.366 433.818,309.856 433.404,310.249 C 432.991,310.642 432.505,310.839 431.944,310.838 C 431.518,310.839 431.111,310.695 430.724,310.409 C 430.338,310.122 430.091,309.693 429.984,309.12 L 427.945,309.12 C 428.011,310.12 428.428,310.996 429.194,311.75 C 429.961,312.503 430.851,312.879 431.865,312.879 C 433.131,312.879 434.148,312.463 434.914,311.63 C 435.681,310.796 436.064,309.86 436.064,308.82 C 436.064,308.274 435.958,307.744 435.744,307.23 C 435.531,306.717 435.131,306.267 434.544,305.88 C 435.145,305.494 435.575,305.02 435.835,304.46 C 436.095,303.899 436.225,303.332 436.225,302.759 C 436.225,301.438 435.808,300.385 434.975,299.598 C 434.141,298.81 433.118,298.417 431.904,298.417 C 430.945,298.417 430.078,298.727 429.305,299.346 C 428.531,299.966 428.051,300.869 427.864,302.054 L 429.905,302.054 C 430.091,301.576 430.345,301.187 430.665,300.887 C 430.985,300.588 431.438,300.438 432.025,300.438 C 432.585,300.438 433.085,300.639 433.525,301.039 C 433.965,301.439 434.185,301.992 434.185,302.699 C 434.185,303.406 433.968,303.959 433.535,304.36 C 433.101,304.76 432.585,304.96 431.985,304.96 L 431.124,304.96 Z" marker-start="none" marker-end="none"/>
      <path d="M 440.724,304.96 L 440.724,306.762 L 441.425,306.762 C 442.105,306.761 442.641,306.951 443.034,307.331 C 443.428,307.711 443.625,308.194 443.624,308.78 C 443.625,309.366 443.418,309.856 443.004,310.249 C 442.591,310.642 442.105,310.839 441.544,310.838 C 441.118,310.839 440.711,310.695 440.324,310.409 C 439.938,310.122 439.691,309.693 439.584,309.12 L 437.545,309.12 C 437.611,310.12 438.028,310.996 438.794,311.75 C 439.561,312.503 440.451,312.879 441.465,312.879 C 442.731,312.879 443.748,312.463 444.514,311.63 C 445.281,310.796 445.664,309.86 445.664,308.82 C 445.664,308.274 445.558,307.744 445.344,307.23 C 445.131,306.717 444.731,306.267 444.144,305.88 C 444.745,305.494 445.175,305.02 445.435,304.46 C 445.695,303.899 445.825,303.332 445.825,302.759 C 445.825,301.438 445.408,300.385 444.575,299.598 C 443.741,298.81 442.718,298.417 441.504,298.417 C 440.545,298.417 439.678,298.727 438.905,299.346 C 438.131,299.966 437.651,300.869 437.464,302.054 L 439.505,302.054 C 439.691,301.576 439.945,301.187 440.265,300.887 C 440.585,300.588 441.038,300.438 441.625,300.438 C 442.185,300.438 442.685,300.639 443.125,301.039 C 443.565,301.439 443.785,301.992 443.785,302.699 C 443.785,303.406 443.568,303.959 443.135,304.36 C 442.701,304.76 442.185,304.96 441.585,304.96 L 440.724,304.96 Z" marker-start="none" marker-end="none"/>
      <path d="M 453.604,302.618 L 453.604,308.658 C 453.604,309.352 453.421,309.888 453.054,310.268 C 452.688,310.649 452.205,310.839 451.605,310.838 C 450.992,310.839 450.505,310.649 450.145,310.268 C 449.785,309.888 449.605,309.352 449.605,308.658 L 449.605,302.618 C 449.605,301.925 449.785,301.388 450.145,301.008 C 450.505,300.628 450.992,300.438 451.605,300.438 C 452.205,300.438 452.688,300.628 453.054,301.008 C 453.421,301.388 453.604,301.925 453.604,302.618 Z M 447.564,302.498 L 447.564,308.779 C 447.564,310.086 447.974,311.096 448.794,311.809 C 449.615,312.523 450.551,312.879 451.605,312.879 C 452.645,312.879 453.578,312.523 454.405,311.809 C 455.232,311.096 455.645,310.086 455.645,308.779 L 455.645,302.498 C 455.645,301.191 455.232,300.184 454.405,299.477 C 453.578,298.77 452.645,298.417 451.605,298.417 C 450.551,298.417 449.615,298.77 448.794,299.477 C 447.974,300.184 447.564,301.191 447.564,302.498 Z" marker-start="none" marker-end="none"/>
     </g>
    </g>
    <g id="Group_6" fill-rule="nonzero" stroke-linejoin="round" stroke-linecap="round" stroke="none" stroke-width="0.375" fill="#ffffff" stroke-miterlimit="79.8403193612775">
     <g id="Group_7">
      <path d="M 116.487,392.965 L 116.487,394.767 L 117.188,394.767 C 117.868,394.766 118.404,394.956 118.797,395.336 C 119.191,395.716 119.388,396.199 119.387,396.785 C 119.388,397.371 119.181,397.861 118.767,398.254 C 118.354,398.647 117.868,398.844 117.307,398.843 C 116.881,398.844 116.474,398.7 116.087,398.414 C 115.701,398.127 115.454,397.698 115.347,397.125 L 113.308,397.125 C 113.374,398.125 113.791,399.001 114.557,399.755 C 115.324,400.508 116.214,400.884 117.228,400.884 C 118.494,400.884 119.511,400.468 120.277,399.635 C 121.044,398.801 121.427,397.865 121.427,396.825 C 121.427,396.279 121.321,395.749 121.107,395.235 C 120.894,394.722 120.494,394.272 119.907,393.885 C 120.508,393.499 120.938,393.025 121.198,392.465 C 121.458,391.904 121.588,391.337 121.588,390.764 C 121.588,389.443 121.171,388.39 120.338,387.603 C 119.504,386.815 118.481,386.422 117.267,386.422 C 116.308,386.422 115.441,386.732 114.668,387.351 C 113.894,387.971 113.414,388.874 113.227,390.059 L 115.268,390.059 C 115.454,389.581 115.708,389.192 116.028,388.892 C 116.348,388.593 116.801,388.443 117.388,388.443 C 117.948,388.443 118.448,388.644 118.888,389.044 C 119.328,389.444 119.548,389.997 119.548,390.704 C 119.548,391.411 119.331,391.964 118.898,392.365 C 118.464,392.765 117.948,392.965 117.348,392.965 L 116.487,392.965 Z" marker-start="none" marker-end="none"/>
      <path d="M 123.586,396.661 L 123.586,400.763 L 131.686,400.763 L 131.686,398.723 L 126.866,386.544 L 124.587,386.544 L 129.407,398.721 L 125.627,398.721 L 125.627,396.661 L 123.586,396.661 Z" marker-start="none" marker-end="none"/>
      <path d="M 133.167,393.064 L 133.167,400.763 L 140.745,400.763 L 140.745,398.721 L 135.085,398.721 L 135.087,395.505 C 135.74,396.025 136.5,396.285 137.367,396.285 C 137.9,396.285 138.391,396.182 138.837,395.975 C 139.284,395.768 139.641,395.525 139.907,395.245 C 140.294,394.818 140.577,394.358 140.757,393.864 C 140.937,393.371 141.027,392.53 141.028,391.343 C 141.027,390.383 140.957,389.673 140.817,389.213 C 140.677,388.753 140.454,388.323 140.147,387.922 C 139.854,387.562 139.443,387.222 138.916,386.902 C 138.389,386.582 137.772,386.422 137.065,386.422 C 136.145,386.422 135.258,386.705 134.404,387.273 C 133.551,387.84 133.05,388.783 132.904,390.103 L 134.944,390.103 C 135.184,388.997 135.864,388.443 136.985,388.443 C 137.973,388.443 138.553,388.787 138.726,389.473 C 138.9,390.16 138.987,390.837 138.987,391.504 C 138.987,392.291 138.853,392.944 138.587,393.464 C 138.32,393.984 137.766,394.244 136.926,394.244 C 136.139,394.244 135.525,393.85 135.085,393.064 L 133.167,393.064 Z" marker-start="none" marker-end="none"/>
     </g>
    </g>
    <g id="Group_8" fill-rule="nonzero" stroke-linejoin="round" stroke-linecap="round" stroke="none" stroke-width="0.375" fill="#ffffff" stroke-miterlimit="79.8403193612775">
     <g id="Group_9">
      <path d="M 346.198,392.965 L 346.198,394.767 L 346.899,394.767 C 347.579,394.766 348.115,394.956 348.508,395.336 C 348.902,395.716 349.099,396.199 349.098,396.785 C 349.099,397.371 348.892,397.861 348.478,398.254 C 348.065,398.647 347.579,398.844 347.018,398.843 C 346.592,398.844 346.185,398.7 345.798,398.414 C 345.412,398.127 345.165,397.698 345.058,397.125 L 343.019,397.125 C 343.085,398.125 343.502,399.001 344.268,399.755 C 345.035,400.508 345.925,400.884 346.939,400.884 C 348.205,400.884 349.222,400.468 349.988,399.635 C 350.755,398.801 351.138,397.865 351.138,396.825 C 351.138,396.279 351.032,395.749 350.818,395.235 C 350.605,394.722 350.205,394.272 349.618,393.885 C 350.219,393.499 350.649,393.025 350.909,392.465 C 351.169,391.904 351.299,391.337 351.299,390.764 C 351.299,389.443 350.882,388.39 350.049,387.603 C 349.215,386.815 348.192,386.422 346.978,386.422 C 346.019,386.422 345.152,386.732 344.379,387.351 C 343.605,387.971 343.125,388.874 342.938,390.059 L 344.979,390.059 C 345.165,389.581 345.419,389.192 345.739,388.892 C 346.059,388.593 346.512,388.443 347.099,388.443 C 347.659,388.443 348.159,388.644 348.599,389.044 C 349.039,389.444 349.259,389.997 349.259,390.704 C 349.259,391.411 349.042,391.964 348.609,392.365 C 348.175,392.765 347.659,392.965 347.059,392.965 L 346.198,392.965 Z" marker-start="none" marker-end="none"/>
      <path d="M 353.297,396.661 L 353.297,400.763 L 361.397,400.763 L 361.397,398.723 L 356.577,386.544 L 354.298,386.544 L 359.118,398.721 L 355.338,398.721 L 355.338,396.661 L 353.297,396.661 Z" marker-start="none" marker-end="none"/>
      <path d="M 362.878,393.064 L 362.878,400.763 L 370.456,400.763 L 370.456,398.721 L 364.796,398.721 L 364.798,395.505 C 365.451,396.025 366.211,396.285 367.078,396.285 C 367.611,396.285 368.102,396.182 368.548,395.975 C 368.995,395.768 369.352,395.525 369.618,395.245 C 370.005,394.818 370.288,394.358 370.468,393.864 C 370.648,393.371 370.738,392.53 370.739,391.343 C 370.738,390.383 370.668,389.673 370.528,389.213 C 370.388,388.753 370.165,388.323 369.858,387.922 C 369.565,387.562 369.154,387.222 368.627,386.902 C 368.1,386.582 367.483,386.422 366.776,386.422 C 365.856,386.422 364.969,386.705 364.115,387.273 C 363.262,387.84 362.761,388.783 362.615,390.103 L 364.655,390.103 C 364.895,388.997 365.575,388.443 366.696,388.443 C 367.684,388.443 368.264,388.787 368.437,389.473 C 368.611,390.16 368.698,390.837 368.698,391.504 C 368.698,392.291 368.564,392.944 368.298,393.464 C 368.031,393.984 367.477,394.244 366.637,394.244 C 365.85,394.244 365.236,393.85 364.796,393.064 L 362.878,393.064 Z" marker-start="none" marker-end="none"/>
     </g>
    </g>
   </g>
  </g>
 </g>
</svg>
