<?xml version="1.0" standalone="no"?>
<!DOCTYPE svg PUBLIC "-//W3C//DTD SVG 20010904//EN"
 "http://www.w3.org/TR/2001/REC-SVG-20010904/DTD/svg10.dtd">
<svg version="1.0" xmlns="http://www.w3.org/2000/svg"
 width="150.000000pt" height="150.000000pt" viewBox="0 0 150.000000 150.000000"
 preserveAspectRatio="xMidYMid meet">
<metadata>
Created by potrace 1.14, written by Peter Selinger 2001-2017
</metadata>
<g transform="translate(0.000000,150.000000) scale(0.100000,-0.100000)"
fill="#000000" stroke="none">
<path d="M0 750 l0 -750 750 0 750 0 0 750 0 750 -750 0 -750 0 0 -750z m590
665 l0 -65 -55 0 -55 0 0 -415 0 -415 35 0 c31 0 35 3 44 38 5 20 38 155 72
300 l63 262 96 0 96 0 64 -267 c88 -370 75 -333 115 -333 l35 0 0 100 0 100
70 0 70 0 0 -170 0 -170 -90 0 c-49 0 -90 -1 -90 -3 0 -1 14 -49 30 -107 17
-58 30 -106 30 -107 0 -2 23 -3 50 -3 l50 0 0 -65 0 -65 -175 0 -175 0 0 65 0
65 44 0 c25 0 47 3 49 8 2 4 -7 53 -21 110 l-24 103 -136 -3 -136 -3 -18 -85
c-27 -132 -27 -130 32 -130 l50 0 0 -70 0 -70 -175 0 -175 0 0 69 0 70 48 3
47 3 12 48 c6 26 15 72 18 102 l7 55 -116 0 -116 0 0 75 0 75 45 0 45 0 -2
413 -3 412 -42 3 -43 3 0 65 0 64 165 0 165 0 0 -65z"/>
<path d="M781 924 c-42 -159 -91 -367 -91 -384 0 -19 6 -20 100 -20 76 0 100
3 100 13 0 17 -90 420 -95 425 -2 2 -8 -13 -14 -34z"/>
</g>
</svg>
